<?xml version="1.0" encoding="UTF-8" standalone="no"?>
<svg
   xmlns:dc="http://purl.org/dc/elements/1.1/"
   xmlns:cc="http://creativecommons.org/ns#"
   xmlns:rdf="http://www.w3.org/1999/02/22-rdf-syntax-ns#"
   xmlns:svg="http://www.w3.org/2000/svg"
   xmlns="http://www.w3.org/2000/svg"
   xmlns:sodipodi="http://sodipodi.sourceforge.net/DTD/sodipodi-0.dtd"
   xmlns:inkscape="http://www.inkscape.org/namespaces/inkscape"
   width="80.377495mm"
   height="17.18088mm"
   viewBox="0 0 80.377495 17.18088"
   version="1.1"
   id="svg8"
   inkscape:version="1.0.2-2 (e86c870879, 2021-01-15)"
   sodipodi:docname="FJZ IEK-3.svg">
  <defs
     id="defs2" />
  <sodipodi:namedview
     id="base"
     pagecolor="#ffffff"
     bordercolor="#666666"
     borderopacity="1.0"
     inkscape:pageopacity="0.0"
     inkscape:pageshadow="2"
     inkscape:zoom="5.6568543"
     inkscape:cx="137.29753"
     inkscape:cy="39.95821"
     inkscape:document-units="mm"
     inkscape:current-layer="g25"
     inkscape:document-rotation="0"
     showgrid="false"
     inkscape:window-width="3200"
     inkscape:window-height="1721"
     inkscape:window-x="2391"
     inkscape:window-y="-9"
     inkscape:window-maximized="1"
     fit-margin-top="0"
     fit-margin-left="0"
     fit-margin-right="0"
     fit-margin-bottom="0" />
  <metadata
     id="metadata5">
    <rdf:RDF>
      <cc:Work
         rdf:about="">
        <dc:format>image/svg+xml</dc:format>
        <dc:type
           rdf:resource="http://purl.org/dc/dcmitype/StillImage" />
        <dc:title></dc:title>
      </cc:Work>
    </rdf:RDF>
  </metadata>
  <g
     inkscape:label="Ebene 1"
     inkscape:groupmode="layer"
     id="layer1"
     transform="translate(-64.701818,-28.344363)">
    <g
       id="g25"
       transform="matrix(1.1738868,0,0,1.1738868,-18.239092,-6.4224771)">
      <g
         id="g141"
         transform="matrix(0.95099791,0,0,0.95099791,4.6890741,1.8098827)">
        <g
           id="g842"
           transform="matrix(0.65569433,0,0,0.65569433,44.521627,10.789142)">
          <path
             style="fill:#023d6b;fill-opacity:1;stroke-width:0.0769697"
             d="m 108.92182,39.874768 v -11.1606 h 0.19243 0.19242 v 11.1606 11.16061 h -0.19242 -0.19243 z"
             id="path847"
             sodipodi:nodetypes="ccccccccc" />
          <path
             d="m 79.190905,45.394001 h -0.266996 c -0.05466,-4.6e-5 -0.09832,0.04551 -0.09594,0.100122 v 1.172259 c 0,0.346258 -0.175218,0.533983 -0.442206,0.533983 -0.266996,0 -0.417174,-0.187728 -0.417174,-0.533983 v -1.172259 c -0.0022,-0.05597 -0.04829,-0.100171 -0.104301,-0.100122 h -0.262823 c -0.0553,0 -0.100122,0.04483 -0.100122,0.100122 v 1.118027 c 0,0.604903 0.246133,0.98036 0.755086,0.98036 0.227632,0.01941 0.447928,-0.08596 0.575702,-0.27534 v 0.133501 c -0.0024,0.05461 0.04128,0.100168 0.09594,0.100122 h 0.266996 c 0.0553,0 0.100122,-0.04483 0.100122,-0.100122 v -1.956554 c 4.9e-5,-0.05697 -0.04738,-0.102499 -0.104301,-0.100121 z m -3.337438,-0.04588 c -0.23695,-0.01728 -0.464867,0.09428 -0.596559,0.292026 v -1.00539 c 4e-6,-0.05761 -0.04669,-0.104304 -0.1043,-0.1043 h -0.262824 c -0.05697,-5e-5 -0.102499,0.04738 -0.100122,0.1043 v 2.815968 c -0.0025,0.0563 0.04382,0.102629 0.100122,0.100123 h 0.279511 c 0.05692,0.0024 0.10435,-0.04315 0.1043,-0.100123 v -1.168088 c 0,-0.346259 0.187732,-0.538155 0.458892,-0.538155 0.271167,0 0.454719,0.191901 0.454719,0.538155 v 1.168088 c -10e-7,0.0553 0.04483,0.100123 0.100122,0.100123 h 0.262821 c 0.05691,0.0024 0.104334,-0.04316 0.104284,-0.100123 v -1.118027 c -0.0041,-0.588216 -0.258635,-0.984531 -0.788447,-0.984531 z m 0.713368,-12.031326 h -1.038763 c -0.214274,0 -0.387977,0.173703 -0.387977,0.387977 v 4.956033 c 0,1.289069 -0.625761,1.83974 -1.514345,1.83974 -0.888581,0 -1.489312,-0.550671 -1.489312,-1.83974 v -4.956033 c 0,-0.214272 -0.173701,-0.387975 -0.387973,-0.387977 h -1.038764 c -0.214274,-10e-7 -0.387978,0.173703 -0.387978,0.387977 v 4.956033 c 0,2.190209 1.326615,3.541854 3.304065,3.541854 1.977449,0 3.337438,-1.351645 3.337438,-3.541854 v -4.956033 c 1.3e-5,-0.212655 -0.171162,-0.38569 -0.383804,-0.387977 z m -7.283868,12.098064 h -0.05424 c -0.235729,-0.0043 -0.455603,0.11834 -0.575698,0.321229 v -0.221103 c 0.0024,-0.05461 -0.04128,-0.100167 -0.09594,-0.100121 h -0.241966 c -0.0553,0 -0.100122,0.04483 -0.100122,0.100121 v 1.956548 c -0.0025,0.0563 0.04382,0.102627 0.100122,0.100121 h 0.258652 c 0.05601,4.8e-5 0.102059,-0.04416 0.1043,-0.100121 v -0.997047 c 0,-0.417175 0.183561,-0.62159 0.546498,-0.62159 h 0.0584 c 0.05531,0.0024 0.102038,-0.04062 0.1043,-0.09594 v -0.26283 c -0.0017,-0.05145 -0.04067,-0.09397 -0.09178,-0.100122 z m 3.925655,0.350429 c 0.225603,-0.0043 0.41896,0.160383 0.450548,0.383806 0.0042,0.03588 0.03479,0.06283 0.07092,0.06258 h 0.30037 c 0.0381,3.43e-4 0.06766,-0.03316 0.06258,-0.07092 0.0037,-0.01789 0.0037,-0.03635 0,-0.05424 -0.079,-0.420207 -0.448532,-0.722875 -0.876067,-0.71754 -0.535275,-0.0041 -0.95935,0.450857 -0.917783,0.984531 v 0.279512 c -0.04174,0.53304 0.383152,0.986897 0.917783,0.980361 0.422072,0.01444 0.792667,-0.278509 0.876067,-0.692511 0.0016,-0.02361 0.0016,-0.04731 0,-0.07092 7.1e-5,-0.03855 -0.03244,-0.06915 -0.07092,-0.06674 h -0.300376 c -0.03458,-0.0024 -0.06451,0.02381 -0.06674,0.0584 -0.01991,0.227333 -0.218796,0.396477 -0.446377,0.379632 -0.266996,0 -0.463065,-0.187728 -0.463065,-0.533984 V 46.30345 c 0.01246,-0.367117 0.208588,-0.559012 0.47558,-0.559012 z m -2.765909,0.216932 c 0,-0.179385 0.162702,-0.23779 0.350432,-0.23779 0.187193,-0.03234 0.368138,0.08347 0.417173,0.266996 0,0.04588 0.0292,0.06674 0.07927,0.06674 h 0.271168 c 0.04086,7.1e-5 0.07333,-0.03431 0.07092,-0.0751 0.0027,-0.01797 0.0027,-0.03625 0,-0.05422 -0.0859,-0.367246 -0.429609,-0.61479 -0.805147,-0.579873 -0.417174,0 -0.83435,0.187729 -0.83435,0.634104 0,0.876067 1.226494,0.513126 1.226494,0.963674 0,0.200244 -0.150183,0.27534 -0.417174,0.27534 -0.197069,0.02129 -0.381907,-0.09904 -0.442205,-0.287856 0,-0.04172 -0.0292,-0.07092 -0.0751,-0.07092 h -0.266996 c -0.04072,-2.3e-4 -0.07498,0.03043 -0.07927,0.07092 -0.0045,0.01921 -0.0045,0.03919 0,0.0584 0.09137,0.378967 0.445968,0.634278 0.834348,0.600731 0.446379,0 0.83435,-0.166869 0.83435,-0.654964 0.07092,-0.88441 -1.151402,-0.52564 -1.151402,-0.997047 z m 1.944033,-13.407991 c 0.802848,0 1.20477,-0.970606 0.63714,-1.538237 -0.567631,-0.56763 -1.538237,-0.165708 -1.538237,0.63714 0.007,0.518513 0.345137,0.899695 0.901097,0.901097 z m 2.628242,0 c 0.802848,0 1.20477,-0.970606 0.63714,-1.538237 -0.567631,-0.56763 -1.538237,-0.165708 -1.538237,0.63714 0.0056,0.569537 0.320967,0.906408 0.901097,0.901097 z m -6.624733,1.151402 c 0,-0.214273 -0.173703,-0.387977 -0.387976,-0.387977 h -1.038764 c -0.214273,0 -0.387976,0.173704 -0.387976,0.387977 v 5.636028 c 0.09431,1.501404 -2.20939,1.501404 -2.115078,0 v -0.112641 c 0,-0.214273 -0.173703,-0.387976 -0.387976,-0.387976 h -1.001219 c -0.214273,0 -0.387977,0.173703 -0.387977,0.387976 v 0.0876 c -0.02048,3.825057 5.72743,3.825057 5.70695,0 z m -21.747729,4.313585 3.07879,-7.997237 c -3.894033,-0.417089 -7.643083,1.605839 -9.432317,5.089529 -0.101571,0.221593 -0.101111,0.288671 -0.133501,0.400498 -0.934472,2.415483 0.492265,4.205121 1.877285,4.739102 1.89111,0.690191 3.978351,-0.320392 4.60978,-2.231925 z m 19.92426,7.308899 c -0.537438,-0.0063 -0.965255,0.448483 -0.926129,0.984532 v 0.27951 c 0,1.240399 1.8606,1.240399 1.8606,0 v -0.27951 c 0.03945,-0.539414 -0.393734,-0.995807 -0.934471,-0.984532 z m 0.467235,1.318271 c 0,0.346259 -0.1919,0.533983 -0.467235,0.533983 -0.275336,0 -0.458894,-0.187729 -0.458894,-0.533983 v -0.383805 c 0,-0.346259 0.196072,-0.538154 0.458894,-0.538154 0.262819,0 0.467235,0.1919 0.467235,0.538154 z M 52.224322,40.112574 c -1.835568,4.797508 -6.257618,6.59553 -10.308383,5.903019 3.698768,3.811112 9.809745,3.830117 13.532152,0.0421 3.722406,-3.788021 3.596636,-9.897733 -0.278516,-13.529351 z m 12.932412,4.417879 h -1.668698 c -0.05532,0.0023 -0.09832,0.04898 -0.09596,0.1043 v 2.815969 c -0.0024,0.05462 0.04129,0.100179 0.09596,0.100122 h 0.262825 c 0.05692,0.0024 0.10435,-0.04315 0.1043,-0.100122 V 46.34521 h 1.042936 c 0.05529,0 0.100121,-0.04483 0.100121,-0.100122 v -0.22945 c 4.9e-5,-0.05601 -0.04415,-0.10206 -0.100121,-0.104301 h -1.042943 v -0.946979 h 1.301584 c 0.05601,4e-5 0.102045,-0.04416 0.104285,-0.100122 v -0.229445 c 4e-6,-0.0576 -0.04669,-0.104295 -0.104285,-0.1043 z m 35.647966,0.86355 h -0.26281 c -0.0553,-4e-6 -0.10013,0.04482 -0.10013,0.100122 v 1.172261 c 0,0.346259 -0.1752,0.533983 -0.442191,0.533983 -0.266987,0 -0.417167,-0.187729 -0.417167,-0.533983 v -1.172261 c -0.0022,-0.05597 -0.04829,-0.100176 -0.10431,-0.100122 h -0.262818 c -0.05529,2e-6 -0.100119,0.04483 -0.100119,0.100122 v 1.118027 c 0,0.604904 0.246137,0.980361 0.755084,0.980361 0.227631,0.0194 0.447921,-0.08596 0.575691,-0.275338 v 0.133501 c -0.003,0.0563 0.0438,0.102621 0.10011,0.100122 h 0.26283 c 0.0553,-10e-7 0.10012,-0.04483 0.10012,-0.100122 v -1.956553 c 8.8e-4,-0.06253 -0.0551,-0.110552 -0.11681,-0.100122 z m -4.41786,-6.445348 h -1.289072 c -0.2503,0 -0.300364,0.200244 -0.325391,0.387979 -0.07456,0.714323 -0.711999,1.23434 -1.426741,1.163915 -0.913616,0 -1.668701,-0.675822 -1.668701,-1.964891 v -1.668699 c 0,-1.289069 0.738397,-1.989923 1.668701,-1.989923 0.725189,-0.03959 1.35425,0.495937 1.430905,1.21815 0.03751,0.250309 0.175219,0.337915 0.312888,0.337915 h 1.276548 c 0.172269,0.01145 0.308602,-0.143471 0.275337,-0.312885 -0.109655,-1.71717 -1.577063,-3.028553 -3.295715,-2.945294 -2.00244,0 -3.466764,1.476798 -3.466764,3.667007 v 1.668699 c 0,2.190208 1.464282,3.667006 3.466764,3.667006 1.724841,0.07059 3.197828,-1.233009 3.33744,-2.953639 -0.0045,-0.158398 -0.137894,-0.282395 -0.296199,-0.27534 z m 1.919001,6.445348 h -0.05838 c -0.23492,-0.0055 -0.454101,0.117689 -0.571527,0.321229 V 45.49413 c 0,-0.05529 -0.04482,-0.10012 -0.100118,-0.100122 h -0.241971 c -0.05529,2e-6 -0.100118,0.04483 -0.100118,0.100122 v 1.956549 c -0.0025,0.0563 0.04382,0.102626 0.100118,0.100122 h 0.258649 c 0.05601,4.9e-5 0.102062,-0.04415 0.104302,-0.100122 V 46.47449 c 0,-0.417175 0.183558,-0.621591 0.5465,-0.621591 h 0.06262 c 0.05461,0.0024 0.100174,-0.04128 0.100128,-0.09594 v -0.262834 c 0,-0.0553 -0.04483,-0.100125 -0.100128,-0.100122 z m -1.956542,0 h -0.438033 v -0.45889 c 0.0024,-0.05692 -0.04316,-0.104353 -0.100128,-0.1043 h -0.254475 c -0.05532,0.0023 -0.0983,0.04899 -0.09594,0.1043 v 0.187728 c 0,0.221101 -0.08762,0.271167 -0.300373,0.271167 -0.0553,2e-6 -0.100119,0.04483 -0.100119,0.100122 v 0.196072 c 0,0.0553 0.04482,0.10012 0.100119,0.100122 h 0.296199 v 1.067966 c 0,0.446377 0.150182,0.692511 0.667481,0.692511 h 0.225273 c 0.05529,-2e-6 0.100118,-0.04483 0.100118,-0.100122 v -0.221103 c 4.6e-5,-0.05466 -0.04551,-0.09831 -0.100118,-0.09594 h -0.150182 c -0.258659,0 -0.287851,-0.09178 -0.287851,-0.337916 v -0.992875 h 0.438023 c 0.05891,-0.002 0.103363,-0.05417 0.09596,-0.112641 v -0.208592 c -0.0061,-0.04881 -0.0468,-0.08594 -0.09596,-0.0876 z m 7.767771,-0.04588 c -0.27052,-0.01208 -0.5268,0.121637 -0.67165,0.350432 -0.1271,-0.228324 -0.37316,-0.364306 -0.63411,-0.350432 -0.22595,-0.01328 -0.44084,0.09898 -0.55901,0.292027 v -0.146005 c -0.002,-0.05597 -0.0483,-0.100169 -0.1043,-0.100121 h -0.27951 c -0.0553,10e-7 -0.10012,0.04483 -0.10012,0.100121 v 1.956549 c -0.003,0.0563 0.0438,0.102627 0.10012,0.100122 h 0.26282 c 0.056,4.8e-5 0.10206,-0.04415 0.1043,-0.100122 v -1.101341 c 0,-0.346259 0.0668,-0.604903 0.41717,-0.604903 0.35043,0 0.41718,0.212758 0.41718,0.604903 v 1.101341 c 0,0.0553 0.0448,0.100121 0.10012,0.100122 h 0.267 c 0.0553,-10e-7 0.10012,-0.04483 0.10012,-0.100122 v -1.101341 c 0,-0.371289 0.0876,-0.604903 0.43803,-0.604903 0.35043,0 0.41718,0.233617 0.41718,0.604903 v 1.101341 c -0.003,0.0563 0.0438,0.102627 0.10012,0.100122 h 0.2962 c 0.056,1.1e-5 0.10199,-0.04418 0.10423,-0.100122 v -1.055451 c -0.0167,-0.62159 -0.14191,-1.047108 -0.77595,-1.047108 z m -10.429345,0 c -0.236513,-0.01574 -0.463072,0.09754 -0.592389,0.296199 V 45.49414 c 10e-7,-0.0553 -0.04483,-0.100126 -0.100128,-0.100123 H 92.72822 c -0.05467,-5.7e-5 -0.09834,0.04551 -0.09596,0.100123 v 1.956548 c -0.0024,0.05462 0.04129,0.100179 0.09596,0.100122 h 0.266988 c 0.0553,3e-6 0.100128,-0.04482 0.100128,-0.100122 v -1.168089 c 0,-0.34626 0.191907,-0.538155 0.458886,-0.538155 0.266998,0 0.458895,0.1919 0.458895,0.538155 v 1.168089 c -0.0025,0.0563 0.04382,0.102632 0.100128,0.100122 h 0.246126 c 0.0553,3e-6 0.100128,-0.04482 0.100128,-0.100122 v -1.118029 c 0.0085,-0.588215 -0.25031,-0.984531 -0.780113,-0.984531 z M 104.53424,33.316801 h -1.03877 c -0.21427,9e-6 -0.38796,0.173711 -0.38796,0.387979 v 3.12885 h -2.99117 v -3.12885 c 0,-0.214275 -0.173703,-0.38798 -0.387978,-0.387979 h -1.038764 c -0.214275,-10e-7 -0.387979,0.173704 -0.387978,0.387979 v 7.984721 c 0,0.214274 0.173704,0.387977 0.387978,0.387976 h 1.038764 c 0.214274,10e-7 0.387978,-0.173702 0.387978,-0.387976 v -3.153882 h 2.96613 v 3.153882 c 0,0.214275 0.17371,0.387978 0.38798,0.387976 h 1.03876 c 0.21427,-4e-6 0.38797,-0.173705 0.38797,-0.387976 V 33.70478 c 0,-0.214272 -0.1737,-0.387975 -0.38797,-0.387979 z M 81.247159,45.348115 c -0.236512,-0.01573 -0.46307,0.09754 -0.592387,0.296198 V 45.49413 c 0,-0.0553 -0.04483,-0.100122 -0.100122,-0.100122 h -0.262825 c -0.0553,0 -0.100121,0.04483 -0.100121,0.100122 v 1.956549 c -0.0025,0.0563 0.04382,0.102628 0.100121,0.100122 h 0.262825 c 0.0553,0 0.100122,-0.04483 0.100122,-0.100122 v -1.16809 c 0,-0.346259 0.191904,-0.538155 0.45889,-0.538155 0.266996,0 0.458893,0.191901 0.458893,0.538155 v 1.16809 c -0.0025,0.0563 0.04382,0.102628 0.100122,0.100122 h 0.262819 c 0.05601,4.9e-5 0.102061,-0.04415 0.104301,-0.100122 V 46.33265 c 0,-0.588216 -0.258654,-0.984531 -0.792633,-0.984531 z m 2.778425,1.785507 h -0.559015 c -0.146004,0 -0.208588,-0.04588 -0.208588,-0.154361 -0.0035,-0.0935 0.07839,-0.167423 0.171042,-0.154361 h 0.417175 c 0.446751,0.07079 0.847767,-0.282102 0.834349,-0.734228 v -0.884396 c 0,-0.0553 -0.04483,-0.100122 -0.100122,-0.100122 h -0.233622 c -0.0553,0 -0.100121,0.04483 -0.100121,0.100122 v 0.27951 c -0.130068,-0.08959 -0.284266,-0.137597 -0.442205,-0.137664 h -0.108463 c -0.44632,-0.05854 -0.840715,0.292473 -0.834349,0.742571 -0.0107,0.212259 0.09475,0.413574 0.275335,0.525641 -0.17302,0.02732 -0.298385,0.179551 -0.292022,0.3546 -0.0082,0.139608 0.06949,0.27012 0.196072,0.329573 -0.187408,0.09268 -0.302075,0.287607 -0.292027,0.496437 0.0037,0.404928 0.362286,0.714489 0.76343,0.659137 h 0.50061 c 0.752839,0.10382 0.752839,-1.426263 0,-1.322443 z m -0.312882,-1.422564 h 0.116804 c 0.559231,-0.05894 0.559231,0.814023 0,0.755084 h -0.116804 c -0.226358,0.03445 -0.427675,-0.146736 -0.417174,-0.37546 -0.01,-0.229046 0.190081,-0.411112 0.417174,-0.379634 z m 0.225274,2.386279 h -0.342087 c -0.292022,0 -0.39632,-0.116803 -0.39632,-0.30037 0,-0.183557 0.1043,-0.312885 0.39632,-0.312885 h 0.333743 c 0.296199,0 0.417176,0.120982 0.417176,0.312885 0,0.191899 -0.112641,0.30037 -0.417176,0.30037 z m 1.919003,-2.135977 c 0,-0.179384 0.162699,-0.237792 0.350431,-0.237792 0.186777,-0.03031 0.366466,0.0847 0.417175,0.266994 0,0.04588 0.0292,0.06674 0.07508,0.06674 h 0.27534 c 0.04086,7.1e-5 0.07333,-0.03431 0.07092,-0.0751 0.0027,-0.01798 0.0027,-0.03626 0,-0.05424 -0.0859,-0.367246 -0.429609,-0.61479 -0.805147,-0.579873 -0.417174,0 -0.834348,0.18773 -0.834348,0.634106 0,0.876066 1.226493,0.513124 1.226493,0.963672 0,0.200244 -0.150182,0.27534 -0.39632,0.27534 -0.197068,0.02129 -0.381907,-0.09903 -0.442207,-0.28785 0,-0.04172 -0.0292,-0.07092 -0.0751,-0.07092 h -0.271155 c -0.0399,-6.6e-5 -0.07288,0.03108 -0.0751,0.07092 -0.0045,0.01921 -0.0045,0.03919 0,0.0584 0.09069,0.388678 0.458811,0.647261 0.855208,0.600731 0.446376,0 0.834348,-0.166869 0.834348,-0.654964 0.01668,-0.863551 -1.205635,-0.50478 -1.205635,-0.976189 z m -1.297413,-4.271867 v -0.926128 c -10e-7,-0.214273 -0.173703,-0.387975 -0.387976,-0.387975 h -3.337438 v -6.674793 c 10e-7,-0.214274 -0.173702,-0.387979 -0.387976,-0.387979 h -1.038765 c -0.214275,0 -0.387978,0.173704 -0.387977,0.387979 v 7.988891 c 0,0.214274 0.173703,0.387977 0.387977,0.387977 h 4.75579 c 0.217524,0.0047 0.39637,-0.170403 0.396319,-0.387977 z m 3.441732,0 v -7.984721 c 0,-0.214273 -0.173703,-0.387977 -0.387976,-0.387977 h -1.038764 c -0.214274,0 -0.387977,0.173703 -0.387977,0.387977 v 7.984721 c 0,0.214274 0.173703,0.387977 0.387977,0.387977 h 1.038764 c 0.214273,0 0.387976,-0.173704 0.387976,-0.387977 z m 1.251524,3.704553 h -1.422565 c -0.05601,-4.8e-5 -0.10206,0.04415 -0.1043,0.100122 v 0.196071 c -5e-5,0.05697 0.04738,0.102499 0.1043,0.100122 h 0.980361 l -1.005391,1.284898 c -0.05496,0.04807 -0.08429,0.119062 -0.07927,0.191901 v 0.175213 c -5e-5,0.05697 0.04738,0.102499 0.1043,0.100122 h 1.422565 c 0.0563,0.0025 0.102628,-0.04382 0.100122,-0.100122 v -0.196072 c 0.0024,-0.05692 -0.04315,-0.10435 -0.100122,-0.1043 h -0.997046 l 1.034593,-1.280727 c 0.04446,-0.04538 0.06726,-0.107684 0.06258,-0.17104 v -0.208582 c -0.005,-0.0446 -0.03914,-0.0804 -0.08344,-0.0876 z m 1.6687,-0.04588 c -0.539606,-0.0086 -0.971168,0.446105 -0.934472,0.98453 v 0.279512 c -0.03429,0.5385 0.39916,0.991216 0.938642,0.980359 0.370353,0.003 0.703341,-0.225111 0.834354,-0.571529 0.0032,-0.02354 0.0032,-0.04739 0,-0.07093 0.0024,-0.04078 -0.03004,-0.07515 -0.07089,-0.0751 h -0.27951 c -0.04173,0.0028 -0.0793,0.0263 -0.100121,0.06258 -0.06687,0.169205 -0.235683,0.275559 -0.417175,0.262825 -0.276389,-0.0016 -0.493233,-0.237596 -0.471407,-0.513126 v -0.0584 h 1.280728 c 0.07476,0.04181 0.165262,-0.01934 0.154356,-0.104301 v -0.200244 c 0.03365,-0.527866 -0.384678,-0.974845 -0.913614,-0.976177 z m 0.467234,0.951155 h -0.934471 v -0.05006 c -8.06e-4,-0.623786 0.935277,-0.623786 0.934471,0 z"
             fill="#023d6b"
             id="path8"
             style="stroke-width:0.417174"
             sodipodi:nodetypes="cccsssccsssccccsscccccccccccccssscsccccccsssssscsssssccccccccscccccsscccccccccccccccccccccsccccccsccccssccsccccccccsccccsccccsscccssssccccccccccccssccsssssssccscccccccccccscccccccccccssssccsssccccssccccsccssccscccssccccccssssccccssccsscccccccssssscssssccssccccccccccccscccccsssssssssscccccccccsccccccsssscccscccccccccsscssssccsscscccscssssccsssssccccssscsccccssssccccccccccccccccccccssssscccccsccccssccsccccccccssccssccscccsssscsssscccccccccccccccccccccccccccccccccccccccccc" />
        </g>
        <g
           aria-label="SYSTEMS  ANALYSIS"
           id="text835"
           style="font-style:normal;font-weight:normal;font-size:10.5833px;line-height:1.25;font-family:sans-serif;fill:#023d6b;fill-opacity:1;stroke:none;stroke-width:0.264583">
          <path
             d="m 117.96156,42.1508 0.18914,-0.01654 q 0.0134,0.113688 0.062,0.187069 0.0496,0.07235 0.15296,0.117823 0.10336,0.04444 0.23255,0.04444 0.11472,0 0.20257,-0.03411 0.0878,-0.03411 0.13022,-0.09302 0.0434,-0.05994 0.0434,-0.130225 0,-0.07131 -0.0413,-0.124023 -0.0413,-0.05374 -0.13642,-0.08992 -0.061,-0.02377 -0.26976,-0.07338 -0.20877,-0.05064 -0.29249,-0.09509 -0.10852,-0.05684 -0.16226,-0.14056 -0.0527,-0.08475 -0.0527,-0.189136 0,-0.114722 0.0651,-0.213941 0.0651,-0.100252 0.19017,-0.151929 0.12506,-0.05168 0.27802,-0.05168 0.16847,0 0.29663,0.05478 0.12919,0.05374 0.19843,0.159164 0.0693,0.10542 0.0744,0.238745 l -0.19224,0.01447 q -0.0155,-0.14366 -0.10542,-0.217041 -0.0889,-0.07338 -0.26355,-0.07338 -0.1819,0 -0.26562,0.06718 -0.0827,0.06615 -0.0827,0.160197 0,0.08165 0.0589,0.134359 0.0579,0.05271 0.30179,0.108521 0.24495,0.05478 0.3359,0.09612 0.13229,0.06098 0.19534,0.15503 0.063,0.09302 0.063,0.214974 0,0.120923 -0.0692,0.22841 -0.0692,0.106454 -0.19948,0.166398 -0.12919,0.05891 -0.29145,0.05891 -0.20567,0 -0.3452,-0.05995 -0.13849,-0.05994 -0.21807,-0.179834 -0.0786,-0.120923 -0.0827,-0.272852 z"
             style="font-style:normal;font-variant:normal;font-weight:normal;font-stretch:normal;font-size:2.11667px;font-family:Arial;-inkscape-font-specification:'Arial, Normal';font-variant-ligatures:normal;font-variant-caps:normal;font-variant-numeric:normal;font-variant-east-asian:normal;fill:#023d6b;fill-opacity:1;stroke-width:0.264583"
             id="path27" />
          <path
             d="M 119.86843,42.637592 V 41.99577 l -0.58395,-0.873333 h 0.24391 l 0.29869,0.45682 q 0.0827,0.128158 0.154,0.256316 0.0682,-0.118856 0.16537,-0.267684 l 0.29352,-0.445452 h 0.23358 l -0.60462,0.873333 v 0.641822 z"
             style="font-style:normal;font-variant:normal;font-weight:normal;font-stretch:normal;font-size:2.11667px;font-family:Arial;-inkscape-font-specification:'Arial, Normal';font-variant-ligatures:normal;font-variant-caps:normal;font-variant-numeric:normal;font-variant-east-asian:normal;fill:#023d6b;fill-opacity:1;stroke-width:0.264583"
             id="path29" />
          <path
             d="m 120.78517,42.1508 0.18913,-0.01654 q 0.0134,0.113688 0.062,0.187069 0.0496,0.07235 0.15296,0.117823 0.10335,0.04444 0.23254,0.04444 0.11472,0 0.20257,-0.03411 0.0878,-0.03411 0.13023,-0.09302 0.0434,-0.05994 0.0434,-0.130225 0,-0.07131 -0.0413,-0.124023 -0.0414,-0.05374 -0.13643,-0.08992 -0.061,-0.02377 -0.26975,-0.07338 -0.20877,-0.05064 -0.29249,-0.09509 -0.10852,-0.05684 -0.16226,-0.14056 -0.0527,-0.08475 -0.0527,-0.189136 0,-0.114722 0.0651,-0.213941 0.0651,-0.100252 0.19017,-0.151929 0.12505,-0.05168 0.27802,-0.05168 0.16846,0 0.29662,0.05478 0.12919,0.05374 0.19844,0.159164 0.0692,0.10542 0.0744,0.238745 l -0.19223,0.01447 q -0.0155,-0.14366 -0.10542,-0.217041 -0.0889,-0.07338 -0.26356,-0.07338 -0.1819,0 -0.26561,0.06718 -0.0827,0.06615 -0.0827,0.160197 0,0.08165 0.0589,0.134359 0.0579,0.05271 0.30179,0.108521 0.24494,0.05478 0.33589,0.09612 0.1323,0.06098 0.19534,0.15503 0.063,0.09302 0.063,0.214974 0,0.120923 -0.0692,0.22841 -0.0692,0.106454 -0.19947,0.166398 -0.12919,0.05891 -0.29146,0.05891 -0.20567,0 -0.3452,-0.05995 -0.13849,-0.05994 -0.21807,-0.179834 -0.0786,-0.120923 -0.0827,-0.272852 z"
             style="font-style:normal;font-variant:normal;font-weight:normal;font-stretch:normal;font-size:2.11667px;font-family:Arial;-inkscape-font-specification:'Arial, Normal';font-variant-ligatures:normal;font-variant-caps:normal;font-variant-numeric:normal;font-variant-east-asian:normal;fill:#023d6b;fill-opacity:1;stroke-width:0.264583"
             id="path31" />
          <path
             d="m 122.65069,42.637592 v -1.336354 h -0.4992 v -0.178801 h 1.20097 v 0.178801 h -0.50127 v 1.336354 z"
             style="font-style:normal;font-variant:normal;font-weight:normal;font-stretch:normal;font-size:2.11667px;font-family:Arial;-inkscape-font-specification:'Arial, Normal';font-variant-ligatures:normal;font-variant-caps:normal;font-variant-numeric:normal;font-variant-east-asian:normal;fill:#023d6b;fill-opacity:1;stroke-width:0.264583"
             id="path33" />
          <path
             d="m 123.56226,42.637592 v -1.515155 h 1.09555 v 0.178801 h -0.89504 v 0.464055 h 0.83819 v 0.177767 h -0.83819 v 0.515732 h 0.93018 v 0.1788 z"
             style="font-style:normal;font-variant:normal;font-weight:normal;font-stretch:normal;font-size:2.11667px;font-family:Arial;-inkscape-font-specification:'Arial, Normal';font-variant-ligatures:normal;font-variant-caps:normal;font-variant-numeric:normal;font-variant-east-asian:normal;fill:#023d6b;fill-opacity:1;stroke-width:0.264583"
             id="path35" />
          <path
             d="m 124.96373,42.637592 v -1.515155 h 0.30179 l 0.35864,1.072804 q 0.0496,0.149862 0.0723,0.224276 0.0258,-0.08268 0.0806,-0.242879 l 0.36277,-1.054201 h 0.26975 v 1.515155 h -0.19327 v -1.268141 l -0.44029,1.268141 h -0.18086 L 125.157,41.347747 v 1.289845 z"
             style="font-style:normal;font-variant:normal;font-weight:normal;font-stretch:normal;font-size:2.11667px;font-family:Arial;-inkscape-font-specification:'Arial, Normal';font-variant-ligatures:normal;font-variant-caps:normal;font-variant-numeric:normal;font-variant-east-asian:normal;fill:#023d6b;fill-opacity:1;stroke-width:0.264583"
             id="path37" />
          <path
             d="m 126.66492,42.1508 0.18914,-0.01654 q 0.0134,0.113688 0.062,0.187069 0.0496,0.07235 0.15296,0.117823 0.10335,0.04444 0.23255,0.04444 0.11472,0 0.20257,-0.03411 0.0879,-0.03411 0.13022,-0.09302 0.0434,-0.05994 0.0434,-0.130225 0,-0.07131 -0.0413,-0.124023 -0.0413,-0.05374 -0.13643,-0.08992 -0.061,-0.02377 -0.26975,-0.07338 -0.20877,-0.05064 -0.29249,-0.09509 -0.10852,-0.05684 -0.16226,-0.14056 -0.0527,-0.08475 -0.0527,-0.189136 0,-0.114722 0.0651,-0.213941 0.0651,-0.100252 0.19017,-0.151929 0.12506,-0.05168 0.27802,-0.05168 0.16847,0 0.29662,0.05478 0.12919,0.05374 0.19844,0.159164 0.0692,0.10542 0.0744,0.238745 l -0.19223,0.01447 q -0.0155,-0.14366 -0.10542,-0.217041 -0.0889,-0.07338 -0.26355,-0.07338 -0.1819,0 -0.26562,0.06718 -0.0827,0.06615 -0.0827,0.160197 0,0.08165 0.0589,0.134359 0.0579,0.05271 0.30179,0.108521 0.24495,0.05478 0.3359,0.09612 0.13229,0.06098 0.19533,0.15503 0.063,0.09302 0.063,0.214974 0,0.120923 -0.0692,0.22841 -0.0692,0.106454 -0.19947,0.166398 -0.12919,0.05891 -0.29145,0.05891 -0.20568,0 -0.3452,-0.05995 -0.1385,-0.05994 -0.21808,-0.179834 -0.0786,-0.120923 -0.0827,-0.272852 z"
             style="font-style:normal;font-variant:normal;font-weight:normal;font-stretch:normal;font-size:2.11667px;font-family:Arial;-inkscape-font-specification:'Arial, Normal';font-variant-ligatures:normal;font-variant-caps:normal;font-variant-numeric:normal;font-variant-east-asian:normal;fill:#023d6b;fill-opacity:1;stroke-width:0.264583"
             id="path39" />
          <path
             d="m 129.03791,42.637592 0.58187,-1.515155 h 0.21601 l 0.62012,1.515155 h -0.22841 l -0.17673,-0.458887 h -0.63356 l -0.1664,0.458887 z m 0.43718,-0.622185 h 0.51366 l -0.15813,-0.419613 q -0.0723,-0.191203 -0.10748,-0.314193 -0.0289,0.145727 -0.0816,0.289388 z"
             style="font-style:normal;font-variant:normal;font-weight:normal;font-stretch:normal;font-size:2.11667px;font-family:Arial;-inkscape-font-specification:'Arial, Normal';font-variant-ligatures:normal;font-variant-caps:normal;font-variant-numeric:normal;font-variant-east-asian:normal;fill:#023d6b;fill-opacity:1;stroke-width:0.264583"
             id="path41" />
          <path
             d="m 130.61404,42.637592 v -1.515155 h 0.20567 l 0.79582,1.189593 v -1.189593 h 0.19224 v 1.515155 h -0.20568 l -0.79581,-1.190626 v 1.190626 z"
             style="font-style:normal;font-variant:normal;font-weight:normal;font-stretch:normal;font-size:2.11667px;font-family:Arial;-inkscape-font-specification:'Arial, Normal';font-variant-ligatures:normal;font-variant-caps:normal;font-variant-numeric:normal;font-variant-east-asian:normal;fill:#023d6b;fill-opacity:1;stroke-width:0.264583"
             id="path43" />
          <path
             d="m 131.9783,42.637592 0.58188,-1.515155 h 0.21601 l 0.62011,1.515155 h -0.22841 l -0.17673,-0.458887 h -0.63355 l -0.1664,0.458887 z m 0.43718,-0.622185 h 0.51367 l -0.15813,-0.419613 q -0.0724,-0.191203 -0.10749,-0.314193 -0.0289,0.145727 -0.0816,0.289388 z"
             style="font-style:normal;font-variant:normal;font-weight:normal;font-stretch:normal;font-size:2.11667px;font-family:Arial;-inkscape-font-specification:'Arial, Normal';font-variant-ligatures:normal;font-variant-caps:normal;font-variant-numeric:normal;font-variant-east-asian:normal;fill:#023d6b;fill-opacity:1;stroke-width:0.264583"
             id="path45" />
          <path
             d="m 133.54823,42.637592 v -1.515155 h 0.20051 v 1.336355 h 0.74621 v 0.1788 z"
             style="font-style:normal;font-variant:normal;font-weight:normal;font-stretch:normal;font-size:2.11667px;font-family:Arial;-inkscape-font-specification:'Arial, Normal';font-variant-ligatures:normal;font-variant-caps:normal;font-variant-numeric:normal;font-variant-east-asian:normal;fill:#023d6b;fill-opacity:1;stroke-width:0.264583"
             id="path47" />
          <path
             d="M 135.00344,42.637592 V 41.99577 l -0.58394,-0.873333 h 0.24391 l 0.29869,0.45682 q 0.0827,0.128158 0.154,0.256316 0.0682,-0.118856 0.16536,-0.267684 l 0.29353,-0.445452 h 0.23357 l -0.60461,0.873333 v 0.641822 z"
             style="font-style:normal;font-variant:normal;font-weight:normal;font-stretch:normal;font-size:2.11667px;font-family:Arial;-inkscape-font-specification:'Arial, Normal';font-variant-ligatures:normal;font-variant-caps:normal;font-variant-numeric:normal;font-variant-east-asian:normal;fill:#023d6b;fill-opacity:1;stroke-width:0.264583"
             id="path49" />
          <path
             d="m 135.92018,42.1508 0.18914,-0.01654 q 0.0134,0.113688 0.062,0.187069 0.0496,0.07235 0.15297,0.117823 0.10335,0.04444 0.23254,0.04444 0.11472,0 0.20257,-0.03411 0.0879,-0.03411 0.13023,-0.09302 0.0434,-0.05994 0.0434,-0.130225 0,-0.07131 -0.0413,-0.124023 -0.0413,-0.05374 -0.13642,-0.08992 -0.061,-0.02377 -0.26975,-0.07338 -0.20878,-0.05064 -0.29249,-0.09509 -0.10852,-0.05684 -0.16227,-0.14056 -0.0527,-0.08475 -0.0527,-0.189136 0,-0.114722 0.0651,-0.213941 0.0651,-0.100252 0.19017,-0.151929 0.12506,-0.05168 0.27802,-0.05168 0.16847,0 0.29663,0.05478 0.12919,0.05374 0.19843,0.159164 0.0693,0.10542 0.0744,0.238745 l -0.19224,0.01447 q -0.0155,-0.14366 -0.10542,-0.217041 -0.0889,-0.07338 -0.26355,-0.07338 -0.1819,0 -0.26562,0.06718 -0.0827,0.06615 -0.0827,0.160197 0,0.08165 0.0589,0.134359 0.0579,0.05271 0.30179,0.108521 0.24495,0.05478 0.3359,0.09612 0.13229,0.06098 0.19534,0.15503 0.063,0.09302 0.063,0.214974 0,0.120923 -0.0692,0.22841 -0.0693,0.106454 -0.19947,0.166398 -0.12919,0.05891 -0.29146,0.05891 -0.20567,0 -0.3452,-0.05995 -0.13849,-0.05994 -0.21807,-0.179834 -0.0786,-0.120923 -0.0827,-0.272852 z"
             style="font-style:normal;font-variant:normal;font-weight:normal;font-stretch:normal;font-size:2.11667px;font-family:Arial;-inkscape-font-specification:'Arial, Normal';font-variant-ligatures:normal;font-variant-caps:normal;font-variant-numeric:normal;font-variant-east-asian:normal;fill:#023d6b;fill-opacity:1;stroke-width:0.264583"
             id="path51" />
          <path
             d="m 137.43431,42.637592 v -1.515155 h 0.2005 v 1.515155 z"
             style="font-style:normal;font-variant:normal;font-weight:normal;font-stretch:normal;font-size:2.11667px;font-family:Arial;-inkscape-font-specification:'Arial, Normal';font-variant-ligatures:normal;font-variant-caps:normal;font-variant-numeric:normal;font-variant-east-asian:normal;fill:#023d6b;fill-opacity:1;stroke-width:0.264583"
             id="path53" />
          <path
             d="m 137.92006,42.1508 0.18914,-0.01654 q 0.0134,0.113688 0.062,0.187069 0.0496,0.07235 0.15296,0.117823 0.10336,0.04444 0.23255,0.04444 0.11472,0 0.20257,-0.03411 0.0879,-0.03411 0.13023,-0.09302 0.0434,-0.05994 0.0434,-0.130225 0,-0.07131 -0.0413,-0.124023 -0.0413,-0.05374 -0.13642,-0.08992 -0.061,-0.02377 -0.26975,-0.07338 -0.20878,-0.05064 -0.29249,-0.09509 -0.10852,-0.05684 -0.16227,-0.14056 -0.0527,-0.08475 -0.0527,-0.189136 0,-0.114722 0.0651,-0.213941 0.0651,-0.100252 0.19017,-0.151929 0.12506,-0.05168 0.27802,-0.05168 0.16847,0 0.29663,0.05478 0.12919,0.05374 0.19843,0.159164 0.0692,0.10542 0.0744,0.238745 l -0.19224,0.01447 q -0.0155,-0.14366 -0.10542,-0.217041 -0.0889,-0.07338 -0.26355,-0.07338 -0.1819,0 -0.26562,0.06718 -0.0827,0.06615 -0.0827,0.160197 0,0.08165 0.0589,0.134359 0.0579,0.05271 0.30179,0.108521 0.24495,0.05478 0.3359,0.09612 0.13229,0.06098 0.19534,0.15503 0.063,0.09302 0.063,0.214974 0,0.120923 -0.0692,0.22841 -0.0693,0.106454 -0.19947,0.166398 -0.12919,0.05891 -0.29146,0.05891 -0.20567,0 -0.3452,-0.05995 -0.13849,-0.05994 -0.21807,-0.179834 -0.0785,-0.120923 -0.0827,-0.272852 z"
             style="font-style:normal;font-variant:normal;font-weight:normal;font-stretch:normal;font-size:2.11667px;font-family:Arial;-inkscape-font-specification:'Arial, Normal';font-variant-ligatures:normal;font-variant-caps:normal;font-variant-numeric:normal;font-variant-east-asian:normal;fill:#023d6b;fill-opacity:1;stroke-width:0.264583"
             id="path55" />
        </g>
        <g
           aria-label="TECHNO-ECONOMIC"
           id="text835-1"
           style="font-style:normal;font-weight:normal;font-size:10.5833px;line-height:1.25;font-family:sans-serif;fill:#023d6b;fill-opacity:1;stroke:none;stroke-width:0.264583">
          <path
             d="m 118.46797,40.52565 v -1.336355 h -0.49919 v -0.1788 h 1.20096 v 0.1788 h -0.50126 v 1.336355 z"
             style="font-style:normal;font-variant:normal;font-weight:normal;font-stretch:normal;font-size:2.11667px;font-family:Arial;-inkscape-font-specification:'Arial, Normal';font-variant-ligatures:normal;font-variant-caps:normal;font-variant-numeric:normal;font-variant-east-asian:normal;fill:#023d6b;fill-opacity:1;stroke-width:0.264583"
             id="path58" />
          <path
             d="m 119.37954,40.52565 v -1.515155 h 1.09555 v 0.1788 h -0.89504 v 0.464056 h 0.83819 v 0.177767 h -0.83819 v 0.515731 h 0.93018 v 0.178801 z"
             style="font-style:normal;font-variant:normal;font-weight:normal;font-stretch:normal;font-size:2.11667px;font-family:Arial;-inkscape-font-specification:'Arial, Normal';font-variant-ligatures:normal;font-variant-caps:normal;font-variant-numeric:normal;font-variant-east-asian:normal;fill:#023d6b;fill-opacity:1;stroke-width:0.264583"
             id="path60" />
          <path
             d="m 121.86829,39.994415 0.2005,0.05064 q -0.063,0.247014 -0.22738,0.377239 -0.16329,0.129191 -0.39997,0.129191 -0.24495,0 -0.39895,-0.09922 -0.15296,-0.100252 -0.23357,-0.289388 -0.0796,-0.189136 -0.0796,-0.406177 0,-0.236679 0.0899,-0.412379 0.091,-0.176734 0.25735,-0.267684 0.16743,-0.09199 0.36794,-0.09199 0.22737,0 0.3824,0.115756 0.15503,0.115755 0.21601,0.325562 l -0.1974,0.04651 q -0.0527,-0.165365 -0.15296,-0.240813 -0.10026,-0.07545 -0.25219,-0.07545 -0.17466,0 -0.29248,0.08372 -0.11679,0.08372 -0.16434,0.22531 -0.0475,0.14056 -0.0475,0.290422 0,0.19327 0.0558,0.337964 0.0568,0.143661 0.1757,0.214975 0.11886,0.07131 0.25735,0.07131 0.16847,0 0.28526,-0.09715 0.11678,-0.09715 0.15813,-0.288355 z"
             style="font-style:normal;font-variant:normal;font-weight:normal;font-stretch:normal;font-size:2.11667px;font-family:Arial;-inkscape-font-specification:'Arial, Normal';font-variant-ligatures:normal;font-variant-caps:normal;font-variant-numeric:normal;font-variant-east-asian:normal;fill:#023d6b;fill-opacity:1;stroke-width:0.264583"
             id="path62" />
          <path
             d="m 122.32201,40.52565 v -1.515155 h 0.2005 v 0.622185 h 0.78755 v -0.622185 h 0.20051 v 1.515155 h -0.20051 v -0.714169 h -0.78755 v 0.714169 z"
             style="font-style:normal;font-variant:normal;font-weight:normal;font-stretch:normal;font-size:2.11667px;font-family:Arial;-inkscape-font-specification:'Arial, Normal';font-variant-ligatures:normal;font-variant-caps:normal;font-variant-numeric:normal;font-variant-east-asian:normal;fill:#023d6b;fill-opacity:1;stroke-width:0.264583"
             id="path64" />
          <path
             d="m 123.84233,40.52565 v -1.515155 h 0.20567 l 0.79582,1.189593 v -1.189593 h 0.19224 v 1.515155 h -0.20568 l -0.79582,-1.190627 v 1.190627 z"
             style="font-style:normal;font-variant:normal;font-weight:normal;font-stretch:normal;font-size:2.11667px;font-family:Arial;-inkscape-font-specification:'Arial, Normal';font-variant-ligatures:normal;font-variant-caps:normal;font-variant-numeric:normal;font-variant-east-asian:normal;fill:#023d6b;fill-opacity:1;stroke-width:0.264583"
             id="path66" />
          <path
             d="m 125.31201,39.787709 q 0,-0.377238 0.20257,-0.590145 0.20257,-0.213941 0.52297,-0.213941 0.2098,0 0.37827,0.100252 0.16846,0.100253 0.25631,0.280087 0.0889,0.178801 0.0889,0.406177 0,0.230478 -0.093,0.412379 -0.093,0.181901 -0.26355,0.275953 -0.17053,0.09302 -0.36794,0.09302 -0.21394,0 -0.3824,-0.103353 -0.16847,-0.103353 -0.25529,-0.282153 -0.0868,-0.178801 -0.0868,-0.378273 z m 0.2067,0.0031 q 0,0.273886 0.14677,0.432016 0.14779,0.157096 0.37,0.157096 0.22634,0 0.37207,-0.159163 0.14676,-0.159164 0.14676,-0.451653 0,-0.185002 -0.063,-0.322462 -0.062,-0.138493 -0.18294,-0.21394 -0.11989,-0.07648 -0.26975,-0.07648 -0.21291,0 -0.3669,0.146762 -0.15297,0.145728 -0.15297,0.487826 z"
             style="font-style:normal;font-variant:normal;font-weight:normal;font-stretch:normal;font-size:2.11667px;font-family:Arial;-inkscape-font-specification:'Arial, Normal';font-variant-ligatures:normal;font-variant-caps:normal;font-variant-numeric:normal;font-variant-east-asian:normal;fill:#023d6b;fill-opacity:1;stroke-width:0.264583"
             id="path68" />
          <path
             d="m 126.92328,40.070897 v -0.187069 h 0.57154 v 0.187069 z"
             style="font-style:normal;font-variant:normal;font-weight:normal;font-stretch:normal;font-size:2.11667px;font-family:Arial;-inkscape-font-specification:'Arial, Normal';font-variant-ligatures:normal;font-variant-caps:normal;font-variant-numeric:normal;font-variant-east-asian:normal;fill:#023d6b;fill-opacity:1;stroke-width:0.264583"
             id="path70" />
          <path
             d="m 127.7284,40.52565 v -1.515155 h 1.09554 v 0.1788 h -0.89503 v 0.464056 h 0.83819 v 0.177767 h -0.83819 v 0.515731 h 0.93017 v 0.178801 z"
             style="font-style:normal;font-variant:normal;font-weight:normal;font-stretch:normal;font-size:2.11667px;font-family:Arial;-inkscape-font-specification:'Arial, Normal';font-variant-ligatures:normal;font-variant-caps:normal;font-variant-numeric:normal;font-variant-east-asian:normal;fill:#023d6b;fill-opacity:1;stroke-width:0.264583"
             id="path72" />
          <path
             d="m 130.21714,39.994415 0.20051,0.05064 q -0.0631,0.247014 -0.22738,0.377239 -0.1633,0.129191 -0.39997,0.129191 -0.24495,0 -0.39895,-0.09922 -0.15296,-0.100252 -0.23358,-0.289388 -0.0796,-0.189136 -0.0796,-0.406177 0,-0.236679 0.0899,-0.412379 0.0909,-0.176734 0.25735,-0.267684 0.16743,-0.09199 0.36794,-0.09199 0.22737,0 0.3824,0.115756 0.15503,0.115755 0.21601,0.325562 l -0.1974,0.04651 q -0.0527,-0.165365 -0.15297,-0.240813 -0.10025,-0.07545 -0.25218,-0.07545 -0.17467,0 -0.29249,0.08372 -0.11679,0.08372 -0.16433,0.22531 -0.0475,0.14056 -0.0475,0.290422 0,0.19327 0.0558,0.337964 0.0568,0.143661 0.1757,0.214975 0.11886,0.07131 0.25735,0.07131 0.16846,0 0.28525,-0.09715 0.11679,-0.09715 0.15813,-0.288355 z"
             style="font-style:normal;font-variant:normal;font-weight:normal;font-stretch:normal;font-size:2.11667px;font-family:Arial;-inkscape-font-specification:'Arial, Normal';font-variant-ligatures:normal;font-variant-caps:normal;font-variant-numeric:normal;font-variant-east-asian:normal;fill:#023d6b;fill-opacity:1;stroke-width:0.264583"
             id="path74" />
          <path
             d="m 130.60368,39.787709 q 0,-0.377238 0.20258,-0.590145 0.20257,-0.213941 0.52296,-0.213941 0.20981,0 0.37827,0.100252 0.16847,0.100253 0.25632,0.280087 0.0889,0.178801 0.0889,0.406177 0,0.230478 -0.093,0.412379 -0.093,0.181901 -0.26355,0.275953 -0.17053,0.09302 -0.36793,0.09302 -0.21394,0 -0.38241,-0.103353 -0.16846,-0.103353 -0.25528,-0.282153 -0.0868,-0.178801 -0.0868,-0.378273 z m 0.20671,0.0031 q 0,0.273886 0.14676,0.432016 0.1478,0.157096 0.37,0.157096 0.22635,0 0.37208,-0.159163 0.14676,-0.159164 0.14676,-0.451653 0,-0.185002 -0.0631,-0.322462 -0.062,-0.138493 -0.18293,-0.21394 -0.11989,-0.07648 -0.26976,-0.07648 -0.2129,0 -0.3669,0.146762 -0.15296,0.145728 -0.15296,0.487826 z"
             style="font-style:normal;font-variant:normal;font-weight:normal;font-stretch:normal;font-size:2.11667px;font-family:Arial;-inkscape-font-specification:'Arial, Normal';font-variant-ligatures:normal;font-variant-caps:normal;font-variant-numeric:normal;font-variant-east-asian:normal;fill:#023d6b;fill-opacity:1;stroke-width:0.264583"
             id="path76" />
          <path
             d="m 132.30901,40.52565 v -1.515155 h 0.20567 l 0.79582,1.189593 v -1.189593 h 0.19224 v 1.515155 h -0.20568 l -0.79582,-1.190627 v 1.190627 z"
             style="font-style:normal;font-variant:normal;font-weight:normal;font-stretch:normal;font-size:2.11667px;font-family:Arial;-inkscape-font-specification:'Arial, Normal';font-variant-ligatures:normal;font-variant-caps:normal;font-variant-numeric:normal;font-variant-east-asian:normal;fill:#023d6b;fill-opacity:1;stroke-width:0.264583"
             id="path78" />
          <path
             d="m 133.77869,39.787709 q 0,-0.377238 0.20257,-0.590145 0.20257,-0.213941 0.52297,-0.213941 0.2098,0 0.37827,0.100252 0.16846,0.100253 0.25631,0.280087 0.0889,0.178801 0.0889,0.406177 0,0.230478 -0.093,0.412379 -0.093,0.181901 -0.26355,0.275953 -0.17053,0.09302 -0.36794,0.09302 -0.21394,0 -0.3824,-0.103353 -0.16847,-0.103353 -0.25529,-0.282153 -0.0868,-0.178801 -0.0868,-0.378273 z m 0.2067,0.0031 q 0,0.273886 0.14677,0.432016 0.14779,0.157096 0.37,0.157096 0.22634,0 0.37207,-0.159163 0.14676,-0.159164 0.14676,-0.451653 0,-0.185002 -0.063,-0.322462 -0.062,-0.138493 -0.18294,-0.21394 -0.11989,-0.07648 -0.26975,-0.07648 -0.21291,0 -0.3669,0.146762 -0.15297,0.145728 -0.15297,0.487826 z"
             style="font-style:normal;font-variant:normal;font-weight:normal;font-stretch:normal;font-size:2.11667px;font-family:Arial;-inkscape-font-specification:'Arial, Normal';font-variant-ligatures:normal;font-variant-caps:normal;font-variant-numeric:normal;font-variant-east-asian:normal;fill:#023d6b;fill-opacity:1;stroke-width:0.264583"
             id="path80" />
          <path
             d="m 135.47988,40.52565 v -1.515155 h 0.30179 l 0.35863,1.072804 q 0.0496,0.149862 0.0724,0.224276 0.0258,-0.08268 0.0806,-0.242879 l 0.36277,-1.054201 h 0.26975 v 1.515155 h -0.19327 v -1.268142 l -0.44029,1.268142 h -0.18086 l -0.43822,-1.289846 v 1.289846 z"
             style="font-style:normal;font-variant:normal;font-weight:normal;font-stretch:normal;font-size:2.11667px;font-family:Arial;-inkscape-font-specification:'Arial, Normal';font-variant-ligatures:normal;font-variant-caps:normal;font-variant-numeric:normal;font-variant-east-asian:normal;fill:#023d6b;fill-opacity:1;stroke-width:0.264583"
             id="path82" />
          <path
             d="m 137.28339,40.52565 v -1.515155 h 0.2005 v 1.515155 z"
             style="font-style:normal;font-variant:normal;font-weight:normal;font-stretch:normal;font-size:2.11667px;font-family:Arial;-inkscape-font-specification:'Arial, Normal';font-variant-ligatures:normal;font-variant-caps:normal;font-variant-numeric:normal;font-variant-east-asian:normal;fill:#023d6b;fill-opacity:1;stroke-width:0.264583"
             id="path84" />
          <path
             d="m 138.91843,39.994415 0.20051,0.05064 q -0.0631,0.247014 -0.22738,0.377239 -0.1633,0.129191 -0.39997,0.129191 -0.24495,0 -0.39895,-0.09922 -0.15296,-0.100252 -0.23358,-0.289388 -0.0796,-0.189136 -0.0796,-0.406177 0,-0.236679 0.0899,-0.412379 0.0909,-0.176734 0.25735,-0.267684 0.16743,-0.09199 0.36794,-0.09199 0.22737,0 0.3824,0.115756 0.15503,0.115755 0.21601,0.325562 l -0.1974,0.04651 q -0.0527,-0.165365 -0.15297,-0.240813 -0.10025,-0.07545 -0.25218,-0.07545 -0.17467,0 -0.29249,0.08372 -0.11679,0.08372 -0.16433,0.22531 -0.0475,0.14056 -0.0475,0.290422 0,0.19327 0.0558,0.337964 0.0568,0.143661 0.1757,0.214975 0.11886,0.07131 0.25735,0.07131 0.16846,0 0.28525,-0.09715 0.11679,-0.09715 0.15813,-0.288355 z"
             style="font-style:normal;font-variant:normal;font-weight:normal;font-stretch:normal;font-size:2.11667px;font-family:Arial;-inkscape-font-specification:'Arial, Normal';font-variant-ligatures:normal;font-variant-caps:normal;font-variant-numeric:normal;font-variant-east-asian:normal;fill:#023d6b;fill-opacity:1;stroke-width:0.264583"
             id="path86" />
        </g>
        <g
           aria-label="IEK-3"
           id="text835-1-9"
           style="font-style:normal;font-variant:normal;font-weight:normal;font-stretch:normal;font-size:8.46667px;line-height:1.25;font-family:Arial;-inkscape-font-specification:'Arial, Normal';font-variant-ligatures:normal;font-variant-caps:normal;font-variant-numeric:normal;font-variant-east-asian:normal;fill:#023d6b;fill-opacity:1;stroke:none;stroke-width:0.264583">
          <path
             d="m 118.54345,37.650997 v -6.060614 h 0.80202 v 6.060614 z"
             style="font-style:normal;font-variant:normal;font-weight:normal;font-stretch:normal;font-size:8.46667px;font-family:Arial;-inkscape-font-specification:'Arial, Normal';font-variant-ligatures:normal;font-variant-caps:normal;font-variant-numeric:normal;font-variant-east-asian:normal;fill:#023d6b;fill-opacity:1;stroke-width:0.264583"
             id="path89" />
          <path
             d="m 120.77588,37.650997 v -6.060614 h 4.38216 v 0.715202 h -3.58014 v 1.856218 h 3.35276 v 0.711068 h -3.35276 v 2.062924 h 3.7207 v 0.715202 z"
             style="font-style:normal;font-variant:normal;font-weight:normal;font-stretch:normal;font-size:8.46667px;font-family:Arial;-inkscape-font-specification:'Arial, Normal';font-variant-ligatures:normal;font-variant-caps:normal;font-variant-numeric:normal;font-variant-east-asian:normal;fill:#023d6b;fill-opacity:1;stroke-width:0.264583"
             id="path91" />
          <path
             d="m 126.37347,37.650997 v -6.060614 h 0.80202 v 3.005502 l 3.00964,-3.005502 h 1.08727 l -2.54248,2.455665 2.6541,3.604949 h -1.05833 l -2.15801,-3.067514 -0.99219,0.967383 v 2.100131 z"
             style="font-style:normal;font-variant:normal;font-weight:normal;font-stretch:normal;font-size:8.46667px;font-family:Arial;-inkscape-font-specification:'Arial, Normal';font-variant-ligatures:normal;font-variant-caps:normal;font-variant-numeric:normal;font-variant-east-asian:normal;fill:#023d6b;fill-opacity:1;stroke-width:0.264583"
             id="path93" />
          <path
             d="m 131.66927,35.831986 v -0.748275 h 2.28617 v 0.748275 z"
             style="font-style:normal;font-variant:normal;font-weight:normal;font-stretch:normal;font-size:8.46667px;font-family:Arial;-inkscape-font-specification:'Arial, Normal';font-variant-ligatures:normal;font-variant-caps:normal;font-variant-numeric:normal;font-variant-east-asian:normal;fill:#023d6b;fill-opacity:1;stroke-width:0.264583"
             id="path95" />
          <path
             d="m 134.57556,36.051094 0.74414,-0.09922 q 0.12815,0.63252 0.43408,0.91364 0.31006,0.276986 0.75241,0.276986 0.52503,0 0.8847,-0.363802 0.3638,-0.363803 0.3638,-0.901238 0,-0.51263 -0.33486,-0.843359 -0.33487,-0.334864 -0.85163,-0.334864 -0.21084,0 -0.52503,0.08268 l 0.0827,-0.65319 q 0.0744,0.0083 0.11989,0.0083 0.47542,0 0.85576,-0.248047 0.38034,-0.248047 0.38034,-0.764811 0,-0.409278 -0.27699,-0.677995 -0.27698,-0.268718 -0.7152,-0.268718 -0.43408,0 -0.72347,0.272852 -0.28939,0.272852 -0.37207,0.818555 l -0.74414,-0.132292 q 0.13643,-0.748275 0.62012,-1.157552 0.48369,-0.413412 1.20303,-0.413412 0.49609,0 0.91364,0.214974 0.41754,0.21084 0.63665,0.578776 0.22324,0.367937 0.22324,0.781348 0,0.392741 -0.21084,0.715202 -0.21084,0.322462 -0.62425,0.512631 0.53744,0.124023 0.83509,0.516764 0.29766,0.388607 0.29766,0.975652 0,0.79375 -0.57878,1.347722 -0.57877,0.549837 -1.46348,0.549837 -0.79788,0 -1.32705,-0.475423 -0.52503,-0.475424 -0.59944,-1.231967 z"
             style="font-style:normal;font-variant:normal;font-weight:normal;font-stretch:normal;font-size:8.46667px;font-family:Arial;-inkscape-font-specification:'Arial, Normal';font-variant-ligatures:normal;font-variant-caps:normal;font-variant-numeric:normal;font-variant-east-asian:normal;fill:#023d6b;fill-opacity:1;stroke-width:0.264583"
             id="path97" />
        </g>
      </g>
    </g>
  </g>
</svg>
